
  <svg width="441.75" height="104.25" viewBox="0 0 2356 556" fill="none" xmlns="http://www.w3.org/2000/svg" xmlns:xlink="http://www.w3.org/1999/xlink" version="1.1">
    
        <g transform="translate(0, 0)">
          <svg width="256" height="256" viewBox="0 0 256 256" fill="none" xmlns="http://www.w3.org/2000/svg">
<rect width="256" height="256" rx="60" fill="#242938"/>
<path d="M218 218H38V38H218L128 128L218 218Z" fill="url(#paint0_linear_7_120)"/>
<defs>
<linearGradient id="paint0_linear_7_120" x1="218" y1="38" x2="38" y2="218" gradientUnits="userSpaceOnUse">
<stop offset="0.00343514" stop-color="#E44857"/>
<stop offset="0.4689" stop-color="#C711E1"/>
<stop offset="1" stop-color="#7F52FF"/>
</linearGradient>
</defs>
</svg>

        </g>
         
        <g transform="translate(300, 0)">
          <svg width="256" height="256" viewBox="0 0 256 256" fill="none" xmlns="http://www.w3.org/2000/svg">
<rect width="256" height="256" rx="60" fill="#242938"/>
<path d="M107.028 48.8181H60.7888C51.5798 48.8181 44.0108 56.6801 44.0108 66.4151C43.6818 75.8111 50.9178 83.6701 59.9698 84.0111H107.522L107.028 48.8181Z" fill="#073042"/>
<path d="M211.835 205.303H60.7887C51.4147 205.303 44.0107 197.445 44.0107 187.707V66.2461C44.0107 75.9821 51.5797 83.8411 60.7887 84.0111H187.321C187.321 84.0111 212 81.7931 212 101.097V205.303H211.835Z" fill="#4285F4"/>
<path d="M141.413 143.12C148.159 137.825 149.475 127.917 144.379 121.082C141.579 117.324 137.301 114.933 132.692 114.761H133.186C134.011 114.591 134.997 114.591 135.823 114.761V105.024C135.823 103.828 135.327 102.803 134.34 102.292C132.858 101.437 131.049 101.95 130.227 103.487C129.897 104 129.733 104.512 129.897 105.195V115.102C121.671 116.469 115.912 124.499 117.225 133.213V133.383C117.886 137.483 120.027 141.242 123.316 143.633L95.5088 205.474H113.609L126.441 177.116C127.925 173.698 131.872 172.162 135.327 173.87C136.646 174.554 137.795 175.749 138.453 177.116L151.783 205.474H170.209L141.413 143.12ZM132.036 140.387C126.77 140.387 122.657 135.945 122.657 130.48C122.657 125.011 126.935 120.741 132.199 120.911C134.667 120.911 136.81 121.937 138.617 123.647C142.401 127.403 142.401 133.554 138.781 137.483C137.137 139.192 134.667 140.387 132.036 140.387Z" fill="#3870B2"/>
<path d="M96.9917 57.363H161.818V69.662H96.9917V57.363Z" fill="white"/>
<path d="M127.1 120.741C132.199 120.741 136.48 125.183 136.316 130.649C136.316 135.945 132.036 140.387 126.77 140.216C121.671 140.216 117.556 135.775 117.556 130.48C117.556 127.917 118.542 125.524 120.357 123.647C122.164 121.766 124.63 120.741 127.1 120.741ZM130.72 115.102V104.853C130.72 103.657 130.227 102.633 129.24 102.119C127.76 101.265 125.949 101.778 125.123 103.316C124.793 103.828 124.63 104.341 124.793 105.024V114.933C116.567 116.298 110.808 124.33 112.129 133.042V133.213C112.788 137.31 114.924 141.07 118.215 143.46L83.1688 221.532C81.8538 224.268 82.0178 227.682 83.8278 230.245C86.4568 234.173 91.5618 235.198 95.3418 232.466C96.6628 231.611 97.6488 230.245 98.3058 228.878L121.671 176.944C123.151 173.528 127.1 171.99 130.556 173.698C131.872 174.382 133.022 175.579 133.681 176.944L157.539 228.366C159.516 232.636 164.449 234.344 168.566 232.293C172.676 230.245 174.323 225.119 172.347 220.848L136.316 143.12C142.896 137.652 144.049 127.575 138.781 120.741C136.81 118.007 134.011 116.128 130.72 115.102Z" fill="#073042"/>
<path d="M152.276 68.296C149.805 68.296 147.831 66.415 147.831 63.854C147.831 62.658 148.323 61.292 149.146 60.437C150.957 58.73 153.591 58.73 155.401 60.437C156.222 61.292 156.716 62.487 156.716 63.683C156.552 66.246 154.742 68.125 152.276 68.296ZM103.572 68.125C101.1 68.125 99.1288 66.075 99.1288 63.683C99.1288 62.487 99.6238 61.292 100.443 60.437C101.925 58.559 104.726 58.216 106.533 59.756H106.698C108.506 61.463 108.67 64.366 107.028 66.246L106.533 66.927C105.712 67.782 104.562 68.296 103.406 68.296L103.572 68.125ZM153.591 40.62L162.311 24.904C162.804 24.05 162.475 23.025 161.818 22.342C160.995 22 160.174 22.171 159.681 22.855L150.629 39.083C136.151 32.421 119.698 32.421 105.383 39.083L96.4978 23.025C96.1688 22.513 95.5088 22 94.8488 22C94.1918 22 93.5328 22.342 93.2018 23.025C92.8738 23.538 92.8738 24.391 93.2018 24.904L102.09 40.62C86.6208 49.33 76.5848 65.734 75.1078 83.841H180.737C179.424 65.564 169.221 49.33 153.755 40.62" fill="#3DDC84"/>
<path d="M197.37 117.839H190.459C190.128 118.007 189.8 118.349 189.8 118.861V232.466C189.8 232.977 190.128 233.319 190.625 233.319H197.863C206.254 233.319 213 226.143 213 217.603V101.95C213 110.662 206.254 117.667 197.863 117.667H197.37V117.839Z" fill="#073042"/>
</svg>

        </g>
         
        <g transform="translate(600, 0)">
          <svg xmlns="http://www.w3.org/2000/svg" width="256" height="256" fill="none" viewBox="0 0 256 256"><rect width="256" height="256" fill="#242938" rx="60"/><path fill="#00C4B3" d="M87.4494 87.005L75.8113 75.3612L75.8563 159.463L75.9969 163.39C76.0532 165.246 76.4047 167.327 76.9672 169.493L169.147 202.005L192.209 191.796L192.229 191.762L87.4438 87.005H87.4494Z"/><path fill="#22D3C5" d="M76.97 169.493H76.9785C76.97 169.459 76.956 169.42 76.9391 169.38C76.9588 169.423 76.9588 169.465 76.9672 169.493H76.97ZM192.187 191.796L169.124 202.005L76.9588 169.493C78.7166 176.254 82.6175 183.853 86.8081 187.999L116.874 217.916L183.778 218L192.159 191.796H192.187Z"/><path fill="#0075C9" d="M76.1263 75.364L40.2866 129.491C37.311 132.669 38.796 139.227 43.5856 144.059L64.2744 164.917L77.2794 169.501C76.7169 167.341 76.3625 165.282 76.3091 163.398L76.1685 159.472L76.1263 75.3696V75.364Z"/><path fill="#0075C9" d="M169.906 76.4469C167.741 75.8984 165.665 75.5525 163.795 75.499L159.638 75.3472L75.8113 75.3669L192.226 191.765L202.453 168.702L169.912 76.4525L169.906 76.4469Z"/><path fill="#00A8E1" d="M169.799 76.4271C169.836 76.4412 169.875 76.4496 169.906 76.4553V76.444C169.87 76.4356 169.836 76.4356 169.799 76.4215V76.4271ZM188.404 86.3215C184.171 82.0606 176.676 78.1653 169.906 76.4553L202.447 168.697L192.209 191.759L217.19 183.777L217.246 115.287L188.401 86.3187L188.404 86.3215Z"/><path fill="#00C4B3" d="M165.344 63.5234L144.532 42.8234C139.677 38.0506 133.119 36.56 129.969 39.53L75.845 75.3613L159.672 75.3416L163.828 75.4934C165.699 75.5497 167.777 75.8928 169.94 76.4413L165.35 63.5178L165.344 63.5234Z"/></svg>
        </g>
         
        <g transform="translate(900, 0)">
          <svg xmlns="http://www.w3.org/2000/svg" width="256" height="256" fill="none" viewBox="0 0 256 256"><rect width="256" height="256" fill="#242938" rx="60"/><path fill="#44D1FD" d="M144.934 38.0615L200.709 38L107.134 131.526L82.7472 155.777L55 127.996L144.934 38.0615ZM144.415 121.569C145.139 120.613 146.471 121.085 147.482 120.962L200.661 120.975L152.194 169.395L124.303 141.675L144.415 121.569Z"/><path fill="#1FBCFD" d="M96.5013 169.442L124.303 141.675L152.194 169.395L152.31 169.518L124.31 197.258L96.5013 169.442V169.442Z"/><path fill="#08589C" d="M124.31 197.258L152.31 169.518L200.681 217.937C182.461 217.978 164.247 217.923 146.034 217.964C144.996 218.196 144.354 217.247 143.691 216.66L124.31 197.258V197.258Z"/></svg>
        </g>
         
        <g transform="translate(1200, 0)">
          <svg xmlns="http://www.w3.org/2000/svg" width="256" height="256" fill="none" viewBox="0 0 256 256"><rect width="256" height="256" fill="#242938" rx="60"/><path fill="url(#paint0_linear_2_47)" d="M127.279 29C76.5066 29 79.6772 51.018 79.6772 51.018L79.7338 73.8284H128.185V80.6772H60.4893C60.4893 80.6772 28 76.9926 28 128.222C28 179.452 56.3573 177.636 56.3573 177.636H73.2812V153.863C73.2812 153.863 72.369 125.506 101.186 125.506H149.24C149.24 125.506 176.239 125.942 176.239 99.4123V55.5461C176.239 55.5461 180.338 29 127.279 29ZM100.563 44.339C105.384 44.339 109.28 48.2351 109.28 53.0556C109.28 57.8761 105.384 61.7723 100.563 61.7723C95.7426 61.7723 91.8465 57.8761 91.8465 53.0556C91.8465 48.2351 95.7426 44.339 100.563 44.339Z"/><path fill="url(#paint1_linear_2_47)" d="M128.721 227.958C179.493 227.958 176.323 205.941 176.323 205.941L176.266 183.13H127.815V176.281H195.511C195.511 176.281 228 179.966 228 128.736C228 77.5062 199.643 79.323 199.643 79.323H182.719V103.096C182.719 103.096 183.631 131.453 154.814 131.453H106.76C106.76 131.453 79.7607 131.016 79.7607 157.546V201.412C79.7607 201.412 75.6615 227.958 128.721 227.958ZM155.437 212.619C150.616 212.619 146.72 208.723 146.72 203.903C146.72 199.082 150.616 195.186 155.437 195.186C160.257 195.186 164.154 199.082 164.154 203.903C164.154 208.723 160.257 212.619 155.437 212.619Z"/><defs><linearGradient id="paint0_linear_2_47" x1="47.22" x2="146.333" y1="46.896" y2="145.02" gradientUnits="userSpaceOnUse"><stop stop-color="#387EB8"/><stop offset="1" stop-color="#366994"/></linearGradient><linearGradient id="paint1_linear_2_47" x1="108.056" x2="214.492" y1="109.905" y2="210.522" gradientUnits="userSpaceOnUse"><stop stop-color="#FFE052"/><stop offset="1" stop-color="#FFC331"/></linearGradient></defs></svg>
        </g>
         
        <g transform="translate(1500, 0)">
          <svg width="256" height="256" viewBox="0 0 256 256" fill="none" xmlns="http://www.w3.org/2000/svg">
<rect width="256" height="256" rx="60" fill="#F0DB4F"/>
<path d="M67.3117 213.932L86.9027 202.076C90.6821 208.777 94.1202 214.447 102.367 214.447C110.272 214.447 115.256 211.355 115.256 199.327V117.529H139.314V199.667C139.314 224.584 124.708 235.926 103.398 235.926C84.1533 235.926 72.9819 225.959 67.3113 213.93" fill="#323330"/>
<path d="M152.381 211.354L171.969 200.013C177.126 208.434 183.828 214.62 195.684 214.62C205.653 214.62 212.009 209.636 212.009 202.762C212.009 194.514 205.479 191.592 194.481 186.782L188.468 184.203C171.111 176.815 159.597 167.535 159.597 147.945C159.597 129.901 173.345 116.153 194.826 116.153C210.12 116.153 221.118 121.481 229.022 135.4L210.291 147.429C206.166 140.04 201.7 137.119 194.826 137.119C187.78 137.119 183.312 141.587 183.312 147.429C183.312 154.646 187.78 157.568 198.09 162.037L204.104 164.614C224.553 173.379 236.067 182.313 236.067 202.418C236.067 224.072 219.055 235.928 196.2 235.928C173.861 235.928 159.426 225.274 152.381 211.354" fill="#323330"/>
</svg>

        </g>
         
        <g transform="translate(1800, 0)">
          <svg xmlns="http://www.w3.org/2000/svg" width="256" height="256" fill="none" viewBox="0 0 256 256"><rect width="256" height="256" fill="#007ACC" rx="60"/><path fill="#fff" d="M56.6112 128.849L56.5299 139.333H73.1902H89.8505L89.8505 186.673V234.012H101.635H113.419V186.673L113.419 139.333H130.079H146.739V129.052C146.739 123.363 146.618 118.609 146.455 118.487C146.333 118.325 126.056 118.243 101.472 118.284L56.7331 118.406L56.6112 128.849Z"/><path fill="#fff" d="M206.567 118.108C213.068 119.734 218.026 122.619 222.577 127.332C224.934 129.852 228.428 134.444 228.713 135.541C228.794 135.866 217.66 143.343 210.915 147.528C210.671 147.691 209.695 146.634 208.598 145.009C205.307 140.214 201.853 138.141 196.57 137.776C188.809 137.247 183.811 141.311 183.852 148.097C183.852 150.088 184.136 151.266 184.949 152.892C186.655 156.427 189.825 158.54 199.781 162.847C218.107 170.731 225.949 175.932 230.826 183.327C236.271 191.576 237.49 204.742 233.792 214.535C229.729 225.181 219.651 232.414 205.469 234.812C201.081 235.584 190.678 235.462 185.965 234.609C175.684 232.78 165.932 227.701 159.918 221.037C157.561 218.436 152.969 211.65 153.254 211.162C153.375 211 154.432 210.35 155.61 209.659C156.748 209.009 161.056 206.53 165.119 204.173L172.474 199.906L174.018 202.182C176.172 205.473 180.885 209.984 183.73 211.487C191.897 215.795 203.113 215.185 208.639 210.228C210.996 208.074 211.971 205.839 211.971 202.548C211.971 199.581 211.605 198.281 210.061 196.046C208.07 193.202 204.007 190.804 192.466 185.806C179.26 180.117 173.571 176.582 168.37 170.974C165.363 167.724 162.518 162.522 161.34 158.174C160.365 154.558 160.121 145.496 160.893 141.839C163.615 129.08 173.246 120.181 187.143 117.539C191.654 116.686 202.137 117.011 206.567 118.108Z"/></svg>
        </g>
         
        <g transform="translate(2100, 0)">
          <svg xmlns="http://www.w3.org/2000/svg" width="256" height="256" fill="none" viewBox="0 0 256 256"><rect width="256" height="256" fill="#00B4E0" rx="60"/><path fill="#fff" d="M40.5 113.234C40.1 113.234 40 113.034 40.2 112.734L42.3 110.034C42.5 109.734 43 109.534 43.4 109.534H79.1C79.5 109.534 79.6 109.834 79.4 110.134L77.7 112.734C77.5 113.034 77 113.334 76.7 113.334L40.5 113.234Z"/><path fill="#fff" d="M25.4 122.434C25 122.434 24.9 122.234 25.1 121.934L27.2 119.234C27.4 118.934 27.9 118.734 28.3 118.734H73.9C74.3 118.734 74.5 119.034 74.4 119.334L73.6 121.734C73.5 122.134 73.1 122.334 72.7 122.334L25.4 122.434Z"/><path fill="#fff" d="M49.6 131.634C49.2 131.634 49.1 131.334 49.3 131.034L50.7 128.534C50.9 128.234 51.3 127.934 51.7 127.934H71.7C72.1 127.934 72.3 128.234 72.3 128.634L72.1 131.034C72.1 131.434 71.7 131.734 71.4 131.734L49.6 131.634Z"/><path fill="#fff" d="M153.4 111.434C147.1 113.034 142.8 114.234 136.6 115.834C135.1 116.234 135 116.334 133.7 114.834C132.2 113.134 131.1 112.034 129 111.034C122.7 107.934 116.6 108.834 110.9 112.534C104.1 116.934 100.6 123.434 100.7 131.534C100.8 139.534 106.3 146.134 114.2 147.234C121 148.134 126.7 145.734 131.2 140.634C132.1 139.534 132.9 138.334 133.9 136.934C130.3 136.934 125.8 136.934 114.6 136.934C112.5 136.934 112 135.634 112.7 133.934C114 130.834 116.4 125.634 117.8 123.034C118.1 122.434 118.8 121.434 120.3 121.434C125.4 121.434 144.2 121.434 156.7 121.434C156.5 124.134 156.5 126.834 156.1 129.534C155 136.734 152.3 143.334 147.9 149.134C140.7 158.634 131.3 164.534 119.4 166.134C109.6 167.434 100.5 165.534 92.5 159.534C85.1 153.934 80.9 146.534 79.8 137.334C78.5 126.434 81.7 116.634 88.3 108.034C95.4 98.7343 104.8 92.8343 116.3 90.7343C125.7 89.0343 134.7 90.1343 142.8 95.6343C148.1 99.1343 151.9 103.934 154.4 109.734C155 110.634 154.6 111.134 153.4 111.434Z"/><path fill="#fff" d="M186.5 166.734C177.4 166.534 169.1 163.934 162.1 157.934C156.2 152.834 152.5 146.334 151.3 138.634C149.5 127.334 152.6 117.334 159.4 108.434C166.7 98.8343 175.5 93.8343 187.4 91.7343C197.6 89.9343 207.2 90.9343 215.9 96.8343C223.8 102.234 228.7 109.534 230 119.134C231.7 132.634 227.8 143.634 218.5 153.034C211.9 159.734 203.8 163.934 194.5 165.834C191.8 166.334 189.1 166.434 186.5 166.734ZM210.3 126.334C210.2 125.034 210.2 124.034 210 123.034C208.2 113.134 199.1 107.534 189.6 109.734C180.3 111.834 174.3 117.734 172.1 127.134C170.3 134.934 174.1 142.834 181.3 146.034C186.8 148.434 192.3 148.134 197.6 145.434C205.5 141.334 209.8 134.934 210.3 126.334Z"/></svg>
        </g>
         
        <g transform="translate(0, 300)">
          <svg xmlns="http://www.w3.org/2000/svg" width="256" height="256" fill="none" viewBox="0 0 256 256"><rect width="256" height="256" fill="#242938" rx="60"/><path fill="#00D8FF" d="M128.001 146.951C138.305 146.951 146.657 138.598 146.657 128.295C146.657 117.992 138.305 109.639 128.001 109.639C117.698 109.639 109.345 117.992 109.345 128.295C109.345 138.598 117.698 146.951 128.001 146.951Z"/><path fill-rule="evenodd" stroke="#00D8FF" stroke-width="8.911" d="M128.002 90.3633C153.05 90.3633 176.319 93.9575 193.864 99.9976C215.003 107.275 228 118.306 228 128.295C228 138.704 214.226 150.423 191.525 157.944C174.363 163.63 151.779 166.598 128.002 166.598C103.624 166.598 80.5389 163.812 63.1834 157.881C41.2255 150.376 28 138.506 28 128.295C28 118.387 40.4096 107.441 61.2515 100.175C78.8617 94.0353 102.705 90.3633 127.998 90.3633H128.002Z" clip-rule="evenodd"/><path fill-rule="evenodd" stroke="#00D8FF" stroke-width="8.911" d="M94.9811 109.438C107.495 87.7402 122.232 69.3783 136.23 57.1971C153.094 42.5206 169.144 36.7728 177.796 41.7623C186.813 46.9623 190.084 64.7496 185.259 88.1712C181.614 105.879 172.9 126.925 161.021 147.523C148.842 168.641 134.897 187.247 121.09 199.315C103.619 214.587 86.7284 220.114 77.8833 215.013C69.3003 210.067 66.0181 193.846 70.1356 172.161C73.6145 153.838 82.3451 131.349 94.977 109.438L94.9811 109.438Z" clip-rule="evenodd"/><path fill-rule="evenodd" stroke="#00D8FF" stroke-width="8.911" d="M95.0123 147.578C82.4633 125.904 73.9194 103.962 70.3531 85.7517C66.0602 63.8109 69.0954 47.0355 77.7401 42.0315C86.7485 36.8163 103.792 42.866 121.674 58.7437C135.194 70.7479 149.077 88.8052 160.99 109.383C173.204 130.481 182.358 151.856 185.919 169.844C190.425 192.608 186.778 210.001 177.941 215.116C169.367 220.08 153.676 214.825 136.945 200.427C122.809 188.263 107.685 169.468 95.0123 147.578Z" clip-rule="evenodd"/></svg>
        </g>
         
        <g transform="translate(300, 300)">
          <svg xmlns="http://www.w3.org/2000/svg" width="256" height="256" fill="none" viewBox="0 0 256 256"><rect width="256" height="256" fill="#242938" rx="60"/><path fill="#fff" d="M121.451 28.0537C121.021 28.0928 119.652 28.2297 118.42 28.3274C90.0137 30.8885 63.4057 46.216 46.5533 69.7742C37.1691 82.8729 31.1672 97.7312 28.8993 113.469C28.0978 118.963 28 120.586 28 128.034C28 135.483 28.0978 137.106 28.8993 142.599C34.3343 180.155 61.0596 211.71 97.306 223.401C103.797 225.493 110.639 226.92 118.42 227.78C121.451 228.112 134.549 228.112 137.58 227.78C151.011 226.294 162.389 222.971 173.611 217.242C175.331 216.363 175.664 216.128 175.429 215.933C175.273 215.815 167.941 205.981 159.144 194.095L143.152 172.492L123.112 142.834C112.086 126.529 103.015 113.195 102.936 113.195C102.858 113.176 102.78 126.353 102.741 142.443C102.682 170.615 102.663 171.749 102.311 172.413C101.803 173.371 101.412 173.762 100.59 174.193C99.9648 174.505 99.4174 174.564 96.4653 174.564H93.0831L92.1838 173.997C91.5973 173.626 91.1672 173.137 90.8739 172.57L90.4633 171.69L90.5024 132.492L90.5611 93.2737L91.1672 92.5112C91.48 92.1007 92.1447 91.5728 92.6139 91.3186C93.4154 90.9276 93.7283 90.8885 97.1105 90.8885C101.099 90.8885 101.763 91.0449 102.8 92.1789C103.093 92.4917 113.943 108.836 126.925 128.523C139.906 148.21 157.658 175.092 166.377 188.288L182.213 212.277L183.015 211.749C190.111 207.135 197.619 200.566 203.562 193.723C216.211 179.197 224.364 161.485 227.101 142.599C227.902 137.106 228 135.483 228 128.034C228 120.586 227.902 118.963 227.101 113.469C221.666 75.913 194.94 44.3587 158.694 32.6676C152.301 30.5953 145.498 29.1681 137.873 28.3079C135.996 28.1124 123.073 27.8973 121.451 28.0537ZM162.389 88.5425C163.327 89.0117 164.09 89.911 164.364 90.8494C164.52 91.3577 164.559 102.228 164.52 126.724L164.461 161.876L158.264 152.374L152.047 142.873V117.321C152.047 100.801 152.125 91.5141 152.242 91.0645C152.555 89.9697 153.239 89.1095 154.178 88.6011C154.979 88.1906 155.273 88.1515 158.342 88.1515C161.236 88.1515 161.744 88.1906 162.389 88.5425Z"/></svg>
        </g>
         
        <g transform="translate(600, 300)">
          <svg xmlns="http://www.w3.org/2000/svg" width="256" height="256" fill="none" viewBox="0 0 256 256"><rect width="256" height="256" fill="#242938" rx="60"/><path fill="url(#paint0_linear_2_119)" fill-rule="evenodd" d="M83 110C88.9991 86.0009 104.001 74 128 74C164 74 168.5 101 186.5 105.5C198.501 108.501 209 104.001 218 92C212.001 115.999 196.999 128 173 128C137 128 132.5 101 114.5 96.5C102.499 93.4991 92 97.9991 83 110ZM38 164C43.9991 140.001 59.0009 128 83 128C119 128 123.5 155 141.5 159.5C153.501 162.501 164 158.001 173 146C167.001 169.999 151.999 182 128 182C92 182 87.5 155 69.5 150.5C57.4991 147.499 47 151.999 38 164Z" clip-rule="evenodd"/><defs><linearGradient id="paint0_linear_2_119" x1="86.5" x2="163.5" y1="74" y2="185.5" gradientUnits="userSpaceOnUse"><stop stop-color="#32B1C1"/><stop offset="1" stop-color="#14C6B7"/></linearGradient></defs></svg>
        </g>
         
        <g transform="translate(900, 300)">
          <svg xmlns="http://www.w3.org/2000/svg" width="256" height="256" fill="none" viewBox="0 0 256 256"><rect width="256" height="256" fill="#242938" rx="60"/><path fill="#E0234E" d="M146.728 18C145.172 18 143.727 18.3422 142.393 18.7985C145.228 20.7379 146.784 23.3046 147.562 26.2136C147.618 26.6129 147.729 26.8981 147.784 27.2973C147.84 27.6396 147.896 27.9818 147.896 28.3241C148.118 33.3435 146.617 33.9709 145.561 36.9369C143.949 40.7586 144.394 44.8654 146.339 48.1736C146.506 48.5729 146.728 49.0292 147.006 49.4285C144.894 34.9976 156.622 32.8301 158.79 28.3241C158.956 24.3884 155.788 21.7646 153.287 19.9393C150.897 18.4563 148.729 18 146.728 18V18ZM164.404 21.2512C164.181 22.5631 164.348 22.2209 164.293 22.9054C164.237 23.3617 164.237 23.9321 164.181 24.3884C164.07 24.8447 163.959 25.301 163.792 25.7573C163.681 26.2136 163.514 26.6699 163.348 27.1262C163.125 27.5826 162.959 27.9818 162.736 28.4381C162.57 28.6664 162.458 28.8944 162.292 29.1226C162.181 29.2937 162.069 29.4648 161.958 29.636C161.68 30.0353 161.402 30.4345 161.124 30.7767C160.791 31.119 160.513 31.5182 160.124 31.8035C160.124 31.8606 160.124 31.8606 160.124 31.8606C159.79 32.1458 159.457 32.488 159.068 32.7732C157.901 33.6858 156.567 34.3703 155.344 35.2259C154.955 35.511 154.566 35.7392 154.232 36.0814C153.843 36.3666 153.51 36.6518 153.176 36.9941C152.787 37.3363 152.509 37.6785 152.176 38.0778C151.898 38.4201 151.564 38.8193 151.342 39.2186C151.064 39.6179 150.786 40.0171 150.564 40.4164C150.341 40.8727 150.175 41.272 149.952 41.7283C149.786 42.1846 149.619 42.5839 149.508 43.0402C149.341 43.5535 149.23 44.0099 149.119 44.4662C149.063 44.6944 149.063 44.9795 149.007 45.2077C148.952 45.4359 148.952 45.664 148.896 45.8922C148.896 46.3485 148.841 46.8618 148.841 47.3181C148.841 47.6604 148.841 48.0026 148.896 48.3448C148.896 48.8011 148.952 49.2574 149.063 49.7708C149.119 50.2271 149.23 50.6834 149.341 51.1397C149.508 51.596 149.619 52.0524 149.786 52.5087C149.897 52.7939 150.064 53.0791 150.175 53.3072L137.391 48.2307C135.223 47.6033 133.111 47.0329 130.943 46.5196C129.776 46.2344 128.609 45.9492 127.441 45.664C124.106 44.9795 120.716 44.4662 117.325 44.124C117.214 44.124 117.159 44.0668 117.047 44.0668C113.712 43.7246 110.433 43.5535 107.098 43.5535C104.652 43.5535 102.207 43.6675 99.8168 43.8387C96.4262 44.0669 93.0357 44.5231 89.6451 45.0935C88.8114 45.2075 87.9776 45.3787 87.1439 45.5499C85.4208 45.8921 83.7533 46.2914 82.1414 46.6906C81.3077 46.9189 80.474 47.1469 79.6402 47.3751C78.8065 47.7173 78.0283 48.1166 77.2501 48.4588C76.6387 48.744 76.0273 49.0292 75.4159 49.3144C75.3048 49.3715 75.1935 49.3715 75.138 49.4284C74.5822 49.7136 74.0819 49.9417 73.5817 50.227C73.415 50.2841 73.3038 50.3409 73.1926 50.3981C72.5812 50.6833 71.9698 51.0255 71.4696 51.3107C71.0805 51.4818 70.6914 51.71 70.3579 51.8811C70.1912 51.9951 69.9688 52.1093 69.8577 52.1663C69.3574 52.4515 68.8572 52.7367 68.4125 53.0219C67.9123 53.3071 67.4676 53.5922 67.0785 53.8774C66.6894 54.1627 66.3004 54.3908 65.9669 54.676C65.9112 54.7331 65.8558 54.7331 65.8001 54.79C65.4666 55.0182 65.0775 55.3033 64.744 55.5885C64.744 55.5885 64.6884 55.6456 64.633 55.7025C64.3551 55.9308 64.0771 56.1588 63.7992 56.387C63.6881 56.4441 63.5768 56.5581 63.4657 56.6152C63.1878 56.8435 62.9099 57.1286 62.632 57.3567C62.5763 57.4707 62.4652 57.5279 62.4096 57.585C62.0761 57.9272 61.7426 58.2124 61.4091 58.5547C61.3534 58.5547 61.3534 58.6118 61.298 58.6686C60.9645 58.9538 60.631 59.2961 60.2975 59.6383C60.2418 59.6954 60.2418 59.7523 60.1864 59.7523C59.9085 60.0375 59.6306 60.3227 59.3527 60.6649C59.2416 60.7789 59.0748 60.8932 58.9636 61.0071C58.6857 61.3494 58.3522 61.6916 58.0187 62.0339C57.963 62.1478 57.852 62.205 57.7963 62.319C57.3516 62.7754 56.9625 63.2317 56.5179 63.688C56.4622 63.7451 56.4068 63.802 56.3511 63.8591C55.4618 64.8288 54.5169 65.7984 53.5164 66.654C52.5159 67.5666 51.4599 68.4222 50.4038 69.1637C49.2921 69.9623 48.236 70.6467 47.0688 71.3312C45.9571 71.9586 44.7899 72.529 43.5671 73.0424C42.3998 73.5557 41.177 74.0121 39.9542 74.4113C37.6197 74.9247 35.2297 75.8943 33.1731 76.0654C32.7284 76.0654 32.2282 76.1794 31.7835 76.2365C31.2833 76.3505 30.8386 76.4648 30.394 76.5788C29.9493 76.7499 29.5046 76.921 29.06 77.0921C28.6153 77.2633 28.1707 77.4914 27.726 77.7196C27.3369 78.0048 26.8923 78.2329 26.5032 78.5181C26.1141 78.8033 25.725 79.1455 25.3915 79.4878C25.0025 79.773 24.6134 80.1723 24.2799 80.5145C23.9464 80.9138 23.6129 81.256 23.335 81.6553C23.0571 82.1116 22.7236 82.5109 22.5012 82.9672C22.2233 83.3665 21.9454 83.8227 21.7231 84.279C21.5006 84.7924 21.2784 85.2487 21.1116 85.7621C20.9449 86.2184 20.7781 86.7317 20.6114 87.2451C20.5003 87.7014 20.389 88.1577 20.3335 88.614C20.3335 88.6712 20.2778 88.728 20.2778 88.7851C20.1667 89.2985 20.1667 89.983 20.1111 90.3252C20.0554 90.7245 20 91.0667 20 91.466C20 91.6943 20 91.9793 20.0557 92.2075C20.1113 92.6068 20.1667 92.949 20.2781 93.2913C20.3892 93.6335 20.5005 93.9757 20.6671 94.318C20.6671 94.3751 20.6671 94.3751 20.6671 94.3751C20.8339 94.7173 21.0562 95.0595 21.2786 95.4018C21.501 95.744 21.7232 96.0862 22.0011 96.4285C22.2791 96.7137 22.6126 97.0559 22.9461 97.3411C23.2795 97.6833 23.6131 97.9685 24.0021 98.2537C25.3361 99.4515 25.6696 99.8508 27.3927 100.763C27.6706 100.935 27.9485 101.049 28.282 101.22C28.3377 101.22 28.3931 101.277 28.4488 101.277C28.4488 101.391 28.4488 101.448 28.5044 101.562C28.5601 102.018 28.6712 102.475 28.7823 102.931C28.8934 103.444 29.0603 103.901 29.227 104.3C29.3938 104.642 29.5049 104.984 29.6717 105.327C29.7274 105.441 29.7828 105.555 29.8384 105.612C30.0609 106.068 30.2831 106.467 30.5054 106.867C30.7833 107.266 31.0612 107.665 31.3392 108.065C31.6171 108.407 31.9506 108.806 32.2841 109.148C32.6176 109.491 32.9511 109.776 33.3401 110.118C33.3401 110.118 33.3958 110.175 33.4512 110.175C33.7847 110.46 34.1182 110.746 34.4517 110.974C34.8408 111.259 35.2299 111.487 35.6745 111.715C36.0636 111.943 36.5083 112.171 36.9529 112.343C37.2864 112.514 37.6755 112.628 38.0646 112.742C38.1203 112.799 38.1757 112.799 38.287 112.856C38.5094 112.913 38.7872 112.97 39.0096 113.027C38.8428 116.107 38.7872 119.016 39.232 120.043C39.7322 121.184 42.1779 117.704 44.6235 113.711C44.29 117.647 44.0677 122.267 44.6235 123.636C45.2349 125.062 48.5699 120.613 51.4602 115.708C90.8684 106.353 126.83 134.303 130.61 173.774C129.887 167.613 122.495 164.191 119.104 165.047C117.437 169.267 114.602 174.686 110.044 178.051C110.434 174.287 110.267 170.408 109.489 166.644C108.266 171.891 105.876 176.797 102.596 181.017C97.316 181.417 92.0356 178.793 89.2565 174.857C89.034 174.686 88.9786 174.344 88.8118 174.116C88.6451 173.716 88.4783 173.317 88.3671 172.918C88.2004 172.519 88.0892 172.119 88.0336 171.72C87.978 171.321 87.978 170.922 87.978 170.465C87.978 170.18 87.978 169.895 87.978 169.61C88.0336 169.21 88.1447 168.811 88.2559 168.412C88.3669 168.013 88.4783 167.613 88.645 167.214C88.8674 166.815 89.034 166.416 89.312 166.016C90.2569 163.278 90.2569 161.054 88.5338 159.742C88.2003 159.514 87.8668 159.343 87.4777 159.172C87.2553 159.114 86.9775 159 86.7551 158.943C86.5884 158.886 86.4772 158.829 86.3105 158.772C85.9214 158.658 85.5323 158.544 85.1432 158.487C84.7542 158.373 84.3651 158.316 83.976 158.316C83.5869 158.259 83.1423 158.202 82.7532 158.202C82.4753 158.202 82.1973 158.259 81.9194 158.259C81.4748 158.259 81.0857 158.316 80.6966 158.43C80.3075 158.487 79.9185 158.544 79.5294 158.658C79.1403 158.772 78.7512 158.887 78.3621 159.058C77.9731 159.229 77.6396 159.4 77.2505 159.571C76.917 159.742 76.5835 159.97 76.1944 160.141C63.2436 168.811 70.9696 189.117 79.8073 194.992C76.4723 195.62 73.0818 196.361 72.1369 197.103C72.0812 197.16 72.0258 197.217 72.0258 197.217C74.4159 198.7 76.9171 199.955 79.5295 201.038C83.0868 202.236 86.8664 203.32 88.5339 203.776V203.833C93.1472 204.803 97.8162 205.145 102.541 204.86C127.164 203.092 147.34 183.87 151.009 158.544C151.12 159.058 151.231 159.514 151.342 160.027C151.509 161.054 151.731 162.138 151.843 163.221C151.843 163.221 151.843 163.221 151.843 163.279C151.954 163.792 152.009 164.305 152.065 164.762C152.065 164.876 152.065 164.933 152.065 164.99C152.121 165.503 152.176 166.017 152.176 166.473C152.232 167.1 152.287 167.728 152.287 168.355C152.287 168.64 152.287 168.926 152.287 169.268C152.287 169.553 152.343 169.895 152.343 170.18C152.343 170.523 152.287 170.865 152.287 171.207C152.287 171.492 152.287 171.778 152.287 172.006C152.287 172.405 152.232 172.747 152.232 173.147C152.232 173.375 152.232 173.603 152.176 173.888C152.176 174.287 152.12 174.687 152.12 175.143C152.064 175.314 152.064 175.485 152.064 175.656C152.009 176.113 151.953 176.512 151.898 176.968C151.898 177.139 151.898 177.31 151.842 177.482C151.786 178.052 151.675 178.565 151.62 179.136V179.193V179.25C151.509 179.763 151.397 180.334 151.286 180.847C151.286 180.904 151.286 180.961 151.286 181.018C151.175 181.531 151.064 182.045 150.953 182.558C150.953 182.615 150.897 182.729 150.897 182.786C150.786 183.3 150.675 183.813 150.508 184.327C150.508 184.384 150.508 184.44 150.508 184.498C150.341 185.068 150.174 185.581 150.063 186.095C150.008 186.152 150.008 186.209 150.008 186.209C149.841 186.779 149.674 187.349 149.507 187.92C149.285 188.49 149.118 189.004 148.896 189.574C148.674 190.144 148.507 190.715 148.285 191.228C148.062 191.799 147.84 192.312 147.618 192.882H147.562C147.339 193.396 147.117 193.966 146.839 194.479C146.783 194.65 146.728 194.765 146.672 194.879C146.617 194.936 146.617 194.993 146.561 195.05C142.948 202.522 137.613 209.081 130.943 214.215C130.498 214.5 130.053 214.842 129.609 215.185C129.498 215.298 129.331 215.356 129.22 215.47C128.83 215.755 128.441 216.04 127.997 216.325L128.163 216.668H128.219C128.997 216.554 129.775 216.439 130.554 216.325H130.609C132.054 216.097 133.5 215.812 134.945 215.527C135.334 215.47 135.778 215.356 136.168 215.242C136.445 215.184 136.668 215.128 136.946 215.07C137.335 215.013 137.724 214.899 138.113 214.842C138.446 214.728 138.78 214.671 139.113 214.557C144.672 213.188 150.063 211.306 155.232 209.081C146.395 221.459 134.556 231.441 120.716 238C127.108 237.544 133.5 236.46 139.669 234.635C162.069 227.847 180.912 212.389 192.195 191.57C189.916 204.746 184.802 217.295 177.243 228.246C182.635 224.596 187.582 220.375 192.084 215.584C204.534 202.237 212.705 185.296 215.484 167.101C217.374 176.113 217.93 185.41 217.096 194.593C257.227 137.155 220.431 77.6063 205.035 61.9206C204.979 61.8066 204.924 61.7495 204.924 61.6354C204.868 61.6925 204.868 61.6925 204.868 61.7494C204.868 61.6923 204.868 61.6923 204.812 61.6354C204.812 62.3199 204.756 63.0043 204.701 63.6888C204.534 65.0007 204.368 66.2555 204.145 67.5104C203.867 68.7653 203.534 70.0201 203.2 71.275C202.811 72.4728 202.367 73.7276 201.866 74.9255C201.366 76.0662 200.81 77.2641 200.199 78.4049C199.587 79.4886 198.92 80.6294 198.198 81.6561C197.475 82.7398 196.697 83.7665 195.919 84.7362C195.085 85.7629 194.196 86.6755 193.307 87.5881C192.751 88.1015 192.25 88.5578 191.695 89.0141C191.25 89.4134 190.861 89.7556 190.416 90.1549C189.416 90.9534 188.415 91.6949 187.304 92.3794C186.248 93.0639 185.136 93.7483 184.024 94.3187C182.857 94.8891 181.69 95.4025 180.523 95.9158C179.355 96.3721 178.132 96.7714 176.91 97.1137C175.687 97.4559 174.408 97.7411 173.186 97.9692C171.907 98.1975 170.629 98.3115 169.406 98.4256C168.517 98.4827 167.627 98.5396 166.738 98.5396C165.46 98.5396 164.181 98.4256 162.958 98.3113C161.68 98.1973 160.402 98.0261 159.179 97.7409C157.9 97.5126 156.678 97.1705 155.455 96.7712H155.399C156.622 96.6573 157.845 96.543 159.068 96.3149C160.346 96.0867 161.569 95.8016 162.792 95.4593C164.014 95.1171 165.237 94.7178 166.404 94.2615C167.627 93.8052 168.794 93.2348 169.906 92.6644C171.073 92.094 172.129 91.4666 173.241 90.7821C174.297 90.0406 175.353 89.2991 176.354 88.5006C177.354 87.702 178.299 86.8465 179.188 85.9338C180.133 85.0782 180.967 84.1086 181.801 83.1389C182.635 82.1122 183.413 81.0855 184.135 80.0588C184.246 79.8877 184.358 79.6595 184.469 79.4884C185.025 78.5758 185.58 77.6632 186.081 76.7505C186.692 75.6097 187.248 74.469 187.748 73.2712C188.248 72.0733 188.693 70.8755 189.082 69.6207C189.471 68.4228 189.749 67.168 190.027 65.9131C190.25 64.6012 190.472 63.3464 190.583 62.0915C190.694 60.7796 190.805 59.4677 190.805 58.2129C190.805 57.3002 190.75 56.3876 190.694 55.475C190.583 54.1631 190.416 52.9082 190.25 51.6534C190.027 50.3415 189.749 49.0866 189.416 47.8318C189.027 46.634 188.638 45.3791 188.193 44.1813C187.748 42.9835 187.193 41.7856 186.637 40.6448C186.025 39.5041 185.414 38.3633 184.747 37.2796C184.024 36.1958 183.302 35.1691 182.524 34.1424C181.69 33.1727 180.856 32.2031 179.967 31.2334C179.522 30.7771 179.022 30.2638 178.522 29.8075C176.02 27.8111 173.408 25.9288 170.796 24.2176C170.407 23.9894 170.073 23.8184 169.684 23.6472C167.85 22.4494 166.127 21.822 164.404 21.2516L164.404 21.2512Z"/></svg>
        </g>
         
        <g transform="translate(1200, 300)">
          <svg xmlns="http://www.w3.org/2000/svg" width="256" height="256" fill="none" viewBox="0 0 256 256"><rect width="256" height="256" fill="#242938" rx="60"/><path fill="#FF2D20" fill-rule="evenodd" d="M215.846 78.3138C215.91 78.5572 215.944 78.8083 215.944 79.0605V118.26C215.944 118.763 215.813 119.257 215.565 119.692C215.316 120.128 214.958 120.489 214.528 120.739L182.082 139.681V177.226C182.082 178.248 181.547 179.191 180.673 179.706L112.945 219.241C112.79 219.33 112.621 219.387 112.452 219.448C112.388 219.47 112.329 219.509 112.262 219.527C111.788 219.653 111.291 219.653 110.817 219.527C110.74 219.505 110.669 219.462 110.595 219.434C110.44 219.377 110.278 219.327 110.13 219.241L42.4164 179.706C41.9862 179.455 41.6288 179.094 41.3801 178.659C41.1314 178.224 41.0003 177.729 41 177.226V59.6288C41 59.3715 41.0352 59.1214 41.0986 58.8785C41.1198 58.7963 41.1691 58.7213 41.1973 58.6391C41.2501 58.4891 41.2995 58.3355 41.377 58.1961C41.4298 58.1032 41.5073 58.0282 41.5708 57.9425C41.6518 57.8281 41.7258 57.7102 41.8209 57.6102C41.9019 57.528 42.0076 57.4673 42.0993 57.3959C42.2014 57.3101 42.293 57.2172 42.4093 57.1493H42.4128L76.2714 37.3818C76.7001 37.1317 77.1861 37 77.6807 37C78.1753 37 78.6613 37.1317 79.09 37.3818L112.949 57.1493H112.956C113.068 57.2208 113.164 57.3101 113.266 57.3923C113.357 57.4637 113.459 57.528 113.54 57.6066C113.639 57.7102 113.71 57.8281 113.794 57.9425C113.854 58.0282 113.935 58.1032 113.984 58.1961C114.065 58.339 114.111 58.4891 114.168 58.6391C114.196 58.7213 114.245 58.7963 114.266 58.8821C114.331 59.1255 114.364 59.3766 114.365 59.6288V133.079L142.579 116.606V79.0569C142.579 78.8068 142.614 78.5531 142.678 78.3138C142.703 78.228 142.748 78.153 142.777 78.0708C142.833 77.9208 142.882 77.7672 142.96 77.6278C143.013 77.5349 143.09 77.4599 143.15 77.3742C143.235 77.2598 143.305 77.1419 143.404 77.0419C143.485 76.9597 143.587 76.899 143.679 76.8275C143.784 76.7418 143.876 76.6489 143.989 76.581H143.993L177.855 56.8135C178.283 56.563 178.769 56.4311 179.264 56.4311C179.759 56.4311 180.245 56.563 180.673 56.8135L214.532 76.581C214.652 76.6525 214.743 76.7418 214.849 76.824C214.937 76.8954 215.039 76.9597 215.12 77.0383C215.219 77.1419 215.289 77.2598 215.374 77.3742C215.437 77.4599 215.515 77.5349 215.564 77.6278C215.645 77.7672 215.691 77.9208 215.747 78.0708C215.779 78.153 215.825 78.228 215.846 78.3138H215.846ZM210.3 116.606V84.0086L198.451 90.9253L182.082 100.482V133.079L210.303 116.606H210.3ZM176.441 175.572V142.954L160.34 152.279L114.361 178.888V211.813L176.441 175.572ZM46.6443 64.5769V175.572L108.717 211.81V178.891L76.289 160.281L76.2784 160.274L76.2643 160.267C76.1551 160.203 76.0635 160.11 75.9613 160.031C75.8732 159.96 75.7711 159.903 75.6936 159.824L75.6866 159.814C75.595 159.724 75.5315 159.614 75.454 159.513C75.3835 159.417 75.299 159.335 75.2426 159.235L75.2386 159.224C75.1752 159.117 75.1364 158.988 75.0906 158.867C75.0448 158.76 74.9849 158.66 74.9568 158.545V158.541C74.9216 158.406 74.9145 158.263 74.9004 158.123C74.8863 158.016 74.8581 157.909 74.8581 157.802V157.795V81.0505L58.493 71.49L46.6443 64.5805V64.5769ZM77.6842 43.1624L49.4735 59.6288L77.6772 76.0951L105.884 59.6252L77.6772 43.1624H77.6842ZM92.3551 145.926L108.721 136.373V64.5769L96.8719 71.4936L80.5029 81.0504V152.847L92.3551 145.926ZM179.264 62.5941L151.056 79.0605L179.264 95.5268L207.467 79.0569L179.264 62.5941ZM176.441 100.482L160.072 90.9253L148.224 84.0086V116.606L164.589 126.159L176.441 133.079V100.482ZM111.536 173.94L152.909 149.988L173.591 138.02L145.405 121.564L112.952 140.51L83.3743 157.777L111.536 173.94Z" clip-rule="evenodd"/></svg>
        </g>
         
        <g transform="translate(1500, 300)">
          <svg xmlns="http://www.w3.org/2000/svg" width="256" height="256" fill="none" viewBox="0 0 256 256"><rect width="256" height="256" fill="#242938" rx="60"/><path fill="#336791" d="M203.48 148.688C183.16 152.878 181.684 145.995 181.684 145.995C203.15 114.143 212.129 73.7134 204.38 63.8204C183.259 36.8204 146.689 49.5962 146.077 49.9266L145.88 49.9618C141.414 49.0656 136.873 48.5924 132.317 48.5485C123.12 48.4079 116.145 50.9602 110.844 54.9751C110.844 54.9751 45.6078 28.1016 48.6453 88.7743C49.2922 101.684 67.1375 186.509 88.4422 160.845C96.2891 151.409 103.812 143.484 103.812 143.484C107.539 145.966 112.018 147.232 116.708 146.775L117.073 146.466C116.966 147.681 117.016 148.905 117.221 150.108C111.737 156.239 113.354 157.315 102.385 159.572C91.2898 161.857 97.8148 165.928 102.062 166.997C107.223 168.291 119.162 170.119 127.234 158.827L126.91 160.113C129.062 161.836 130.566 171.314 130.313 179.906C130.06 188.499 129.891 194.391 131.579 199.003C133.266 203.616 134.954 213.98 149.368 210.956C161.413 208.376 167.649 201.675 168.528 190.524C169.147 182.592 170.539 183.759 170.638 176.672L171.763 173.311C173.049 162.553 171.973 159.087 179.391 160.704L181.198 160.866C186.662 161.112 193.813 159.987 198.003 158.039C207.038 153.849 212.396 146.845 203.487 148.688H203.48Z"/><path stroke="#fff" stroke-linecap="round" stroke-linejoin="round" stroke-width="5.034" d="M146.07 48.5961C143.82 49.2993 182.38 34.4985 204.303 62.504C212.038 72.3969 203.073 112.827 181.606 144.678M128.098 153.784C127.536 173.795 128.239 193.946 130.194 198.784C132.148 203.621 136.346 213.198 150.767 210.118C162.812 207.538 167.199 202.538 169.098 191.506L173.548 156.231L128.098 153.784ZM110.816 53.4688C110.816 53.4688 45.5375 26.7782 48.575 87.4508C49.2219 100.36 67.0672 185.185 88.3719 159.521C96.1484 150.148 103.18 142.815 103.18 142.815L110.816 53.4688Z"/><path stroke="#fff" stroke-linecap="round" stroke-linejoin="bevel" stroke-width="5.034" d="M181.613 144.664C181.613 144.664 183.02 151.555 203.41 147.35C212.319 145.508 206.954 152.511 197.926 156.702C190.515 160.147 173.893 161.026 173.619 156.28C172.916 144.01 182.366 147.737 181.684 144.664C181.065 141.894 176.832 139.18 174.048 132.402C171.608 126.495 140.579 81.1438 182.654 87.8727C184.201 87.5563 171.685 47.7946 132.31 47.2181C92.9352 46.6415 94.1797 95.6282 94.1797 95.6282"/><path stroke="#fff" stroke-linejoin="round" stroke-width="5.034" d="M117.08 148.869C111.596 155 113.213 156.076 102.245 158.333C91.1492 160.618 97.6742 164.689 101.921 165.758C107.082 167.052 119.021 168.88 127.093 157.58C129.554 154.135 127.079 148.651 123.704 147.259C122.073 146.584 119.893 145.74 117.095 148.876L117.08 148.869Z"/><path stroke="#fff" stroke-linecap="round" stroke-linejoin="round" stroke-width="5.034" d="M116.722 148.763C116.159 145.156 117.903 140.874 119.766 135.854C122.565 128.331 129.02 120.807 123.859 96.9219C120.013 79.1329 94.1867 93.2165 94.1867 95.6282C94.1867 98.0399 95.3539 107.863 93.7648 119.288C91.6766 134.209 103.257 146.823 116.588 145.536"/><path fill="#fff" stroke="#fff" stroke-width="1.68" d="M110.577 95.2695C110.457 96.0922 112.088 98.293 114.205 98.5883C116.321 98.8836 118.128 97.168 118.248 96.3383C118.367 95.5086 116.736 94.6086 114.62 94.3133C112.503 94.018 110.682 94.4539 110.577 95.2695V95.2695Z"/><path fill="#fff" stroke="#fff" stroke-width=".837" d="M175.011 93.5891C175.123 94.4118 173.499 96.6125 171.383 96.9079C169.266 97.2032 167.445 95.4875 167.34 94.6579C167.234 93.8282 168.852 92.9282 170.968 92.6329C173.084 92.3375 174.905 92.7735 175.011 93.5891Z"/><path stroke="#fff" stroke-linecap="round" stroke-linejoin="round" stroke-width="5.034" d="M182.577 87.8867C182.928 94.3555 181.184 98.75 180.959 105.634C180.636 115.632 185.727 127.079 178.055 138.54"/></svg>
        </g>
         
        <g transform="translate(1800, 300)">
          <svg xmlns="http://www.w3.org/2000/svg" width="256" height="256" fill="none" viewBox="0 0 256 256"><rect width="256" height="256" fill="#242938" rx="60"/><g clip-path="url(#clip0_7_147)"><path fill="#fff" fill-rule="evenodd" d="M203.801 178.21C194.011 177.938 186.416 178.941 180.051 181.619C178.218 182.355 175.277 182.355 175.035 184.662C176.015 185.63 176.133 187.214 176.992 188.556C178.459 190.991 181.033 194.271 183.357 195.973L191.191 201.571C195.965 204.488 201.351 206.193 206.002 209.113C208.696 210.817 211.388 213.007 214.082 214.834C215.454 215.807 216.285 217.392 218 217.997V217.629C217.144 216.538 216.897 214.957 216.044 213.735L212.367 210.209C208.82 205.465 204.41 201.325 199.636 197.922C195.718 195.245 187.152 191.596 185.56 187.097L185.319 186.824C188.008 186.552 191.191 185.605 193.764 184.875C197.929 183.784 201.721 184.024 206.002 182.93L211.882 181.226V180.135C209.678 177.946 208.087 175.025 205.763 172.959C199.521 167.606 192.661 162.373 185.56 157.994C181.766 155.562 176.868 153.977 172.829 151.913C171.356 151.182 168.911 150.817 168.055 149.601C165.846 146.929 164.625 143.397 163.034 140.232L152.997 119.064C150.794 114.319 149.444 109.574 146.755 105.195C134.144 84.5124 120.431 71.9828 99.375 59.6932C94.8477 57.1382 89.4616 56.0393 83.7353 54.7032L74.5546 54.2124C72.5928 53.3616 70.6364 51.0493 68.9216 49.9531C61.9441 45.5739 43.9475 36.0847 38.8029 48.5897C35.4966 56.4974 43.7006 64.2824 46.4855 68.299C48.5708 71.0966 51.2597 74.2597 52.7332 77.4228C53.5563 79.4897 53.8307 81.682 54.6895 83.8717C56.6458 89.2243 58.4842 95.1878 61.0551 100.178C62.427 102.733 63.8675 105.413 65.5824 107.723C66.5619 109.086 68.2768 109.67 68.6417 111.859C66.9268 114.294 66.8089 117.94 65.8293 120.986C61.42 134.734 63.1349 151.766 69.377 161.888C71.3389 164.928 75.9622 171.622 82.2345 169.065C87.744 166.875 86.5148 159.941 88.1062 153.857C88.4766 152.399 88.2297 151.425 88.9623 150.449V150.722L93.9834 160.819C97.7781 166.78 104.391 172.986 109.897 177.125C112.833 179.315 115.16 183.089 118.831 184.425V184.057H118.59C117.854 182.966 116.751 182.475 115.772 181.624C113.569 179.435 111.121 176.757 109.406 174.325C104.267 167.513 99.7399 159.968 95.6983 152.183C93.7365 148.412 92.0216 144.275 90.4357 140.504C89.6949 139.043 89.6949 136.85 88.4739 136.125C86.6355 138.797 83.9466 141.115 82.5939 144.398C80.2672 149.628 80.0257 156.077 79.1697 162.769C78.6758 162.891 78.8953 162.769 78.6758 163.041C74.7631 162.071 73.4132 158.051 71.9453 154.648C68.274 146.01 67.6594 132.141 70.8422 122.164C71.6983 119.609 75.375 111.579 73.9071 109.146C73.1662 106.834 70.7242 105.498 69.3743 103.671C67.7829 101.359 66.0735 98.4409 64.9705 95.8859C62.0346 89.0689 60.5667 81.5293 57.3812 74.7151C55.9077 71.552 53.3396 68.2662 51.257 65.3486C48.9303 62.0628 46.3648 59.7505 44.5265 55.8593C43.9146 54.4959 43.0585 52.3309 44.0381 50.8693C44.2795 49.8959 44.7734 49.5059 45.7475 49.2878C47.3389 47.9244 51.8716 49.6532 53.463 50.3785C57.9903 52.2054 61.7849 53.907 65.5796 56.4592C67.2945 57.6754 69.1329 59.9877 71.3361 60.5985H73.9098C77.8279 61.4493 82.2317 60.8712 85.9002 61.9619C92.3893 64.0343 98.2637 67.0719 103.532 70.3604C119.567 80.4577 132.792 94.8143 141.725 111.971C143.193 114.769 143.805 117.324 145.155 120.244C147.729 126.208 150.912 132.289 153.477 138.132C156.051 143.85 158.498 149.694 162.17 154.438C164.008 156.993 171.35 158.329 174.654 159.668C177.104 160.759 180.896 161.741 183.105 163.077C187.264 165.632 191.427 168.552 195.342 171.35C197.298 172.806 203.423 175.849 203.787 178.276L203.801 178.21ZM78.9584 72.4873C77.267 72.4724 75.5809 72.6769 73.9427 73.0954V73.3681H74.1842C75.1637 75.315 76.8786 76.6538 78.1023 78.3581L80.9202 84.1989L81.1616 83.9262C82.8765 82.71 83.7353 80.7631 83.7353 77.8454C83 76.9947 82.8793 76.1412 82.2674 75.2904C81.5321 74.0743 79.9407 73.4635 78.9584 72.4928V72.4873Z" clip-rule="evenodd"/></g><defs><clipPath id="clip0_7_147"><rect width="180" height="180" fill="#fff" transform="translate(38 38)"/></clipPath></defs></svg>
        </g>
         
        <g transform="translate(2100, 300)">
          <svg xmlns="http://www.w3.org/2000/svg" width="256" height="256" fill="none" viewBox="0 0 256 256"><rect width="256" height="256" fill="#2396ED" rx="60"/><path fill="#fff" d="M141.187 122.123H161.904V103.379H141.187V122.123ZM116.525 122.123H137.241V103.379H116.525V122.123ZM92.3554 122.123H113.072V103.379H92.3554V122.123ZM68.1859 122.123H88.4093V103.379H68.1859V122.123ZM43.5233 122.123H64.2399V103.379H43.5233V122.123ZM68.1859 99.4333H88.4093V80.6896H68.1859V99.4333ZM92.3554 99.4333H113.072V80.6896H92.3554V99.4333ZM116.525 99.4333H137.241V80.6896H116.525V99.4333ZM116.525 76.7436H137.241V58H116.525V76.7436ZM228 113.738C228 113.738 219.121 105.352 200.871 108.312C198.898 94.0075 183.607 85.6222 183.607 85.6222C183.607 85.6222 169.303 102.886 179.661 122.123C176.702 123.603 171.769 125.576 164.37 125.576H28.7257C26.2594 134.948 26.2594 197.097 94.3284 197.097C143.16 197.097 179.661 174.408 196.925 132.974C222.574 134.948 228 113.738 228 113.738Z"/></svg>
        </g>
        
  </svg>
  